<?xml version="1.0" encoding="iso-8859-1"?>
<!-- Generator: Adobe Illustrator 19.0.0, SVG Export Plug-In . SVG Version: 6.00 Build 0)  -->
<svg version="1.1" id="Layer_1" xmlns="http://www.w3.org/2000/svg" xmlns:xlink="http://www.w3.org/1999/xlink" x="0px" y="0px"
	 viewBox="0 0 512 512" style="enable-background:new 0 0 512 512;" xml:space="preserve">
<path style="fill:#E5E3DC;" d="M444.185,196.559c-9.363,0-16.954-7.591-16.954-16.954v-40.689c0-9.363,7.591-16.954,16.954-16.954
	c9.363,0,16.954,7.591,16.954,16.954v40.689C461.139,188.969,453.548,196.559,444.185,196.559z"/>
<g>
	<path style="fill:#8496B7;" d="M464.53,151.35h-41.819c-9.363,0-16.954-7.591-16.954-16.954s7.591-16.954,16.954-16.954h41.819
		c9.363,0,16.954,7.591,16.954,16.954S473.893,151.35,464.53,151.35z"/>
	<path style="fill:#8496B7;" d="M357.715,229.336h77.428v37.716c-2.569,1.059-5.074,2.878-7.048,5.233h71.307
		c-1.999-2.355-4.665-4.174-7.747-5.233v-44.693c0-27.003-21.409-49.535-48.413-49.535h-85.528c-3.122,0-6.21,3.093-6.21,6.215
		v45.21C351.506,227.37,354.593,229.336,357.715,229.336z"/>
	<path style="fill:#8496B7;" d="M265.214,443.072c-9.363,0-16.954-7.591-16.954-16.954v-48.859H126.413v48.859
		c0,9.363-7.591,16.954-16.954,16.954s-16.954-7.591-16.954-16.954v-65.813c0-9.363,7.591-16.954,16.954-16.954h155.755
		c9.363,0,16.954,7.591,16.954,16.954v65.813C282.167,435.481,274.578,443.072,265.214,443.072z"/>
</g>
<path style="fill:#98ADD4;" d="M190.536,343.353h-81.077c-9.363,0-16.954,7.591-16.954,16.954v65.813
	c0,9.363,7.591,16.954,16.954,16.954s16.954-7.591,16.954-16.954V377.26h64.123V343.353z"/>
<path style="fill:#B7A982;" d="M362.538,92.706c-51.107-13.628-103.959-20.473-156.852-20.473h-36.698
	c-52.895,0-105.463,6.845-156.568,20.473C4.998,94.685,0,101.342,0,109.022v243.592c0,7.681,4.998,14.55,12.419,16.529
	c51.108,13.628,103.676,20.687,156.568,20.687h36.698c52.892,0,105.743-7.058,156.852-20.687
	c7.421-1.979,12.703-8.848,12.703-16.529V109.022C375.241,101.342,369.959,94.685,362.538,92.706z"/>
<path style="fill:#CAB98E;" d="M187.337,72.233h-18.348c-52.895,0-105.463,6.845-156.568,20.473C4.998,94.685,0,101.342,0,109.022
	v243.592c0,7.681,4.998,14.55,12.419,16.529c51.108,13.628,103.676,20.687,156.568,20.687h18.348V72.233H187.337z"/>
<path style="fill:#897D70;" d="M147.786,66.491c-3.66-3.219-8.616-4.709-13.444-4.086l-53.954,6.926
	c-8.459,1.087-14.833,8.288-14.833,16.816V375.49c0,8.528,6.332,15.728,14.79,16.816l53.914,6.927
	c0.721,0.093,1.442,0.138,2.16,0.138c4.096,0,8.255-1.486,11.369-4.225c3.657-3.219,5.926-7.856,5.926-12.729V79.22
	C153.713,74.347,151.445,69.71,147.786,66.491z"/>
<path style="fill:#6D6459;" d="M294.612,69.331l-54.056-6.926c-4.828-0.623-9.656,0.867-13.317,4.086
	c-3.657,3.219-5.712,7.856-5.712,12.729v303.198c0,4.874,1.985,9.511,5.642,12.729c3.114,2.739,7.044,4.225,11.141,4.225
	c0.719,0,1.413-0.046,2.133-0.138l54.183-6.927c8.459-1.087,15.059-8.288,15.059-16.816V86.147
	C309.687,77.619,303.071,70.419,294.612,69.331z"/>
<path style="fill:#4B4D5E;" d="M495.046,296.584h-62.177c-9.363,0-16.954-7.591-16.954-16.954c0-9.363,7.591-16.954,16.954-16.954
	h62.177c9.363,0,16.954,7.591,16.954,16.954C512,288.993,504.409,296.584,495.046,296.584z"/>
<path style="fill:#6D6459;" d="M314.208,449.734H61.033c-9.363,0-16.954-7.591-16.954-16.954c0-9.363,7.591-16.954,16.954-16.954
	h253.174c9.363,0,16.954,7.591,16.954,16.954C331.161,442.143,323.57,449.734,314.208,449.734z"/>
<path style="fill:#897D70;" d="M187.62,449.734H61.033c-9.363,0-16.954-7.591-16.954-16.954c0-9.363,7.591-16.954,16.954-16.954
	H187.62V449.734z"/>
<g>
</g>
<g>
</g>
<g>
</g>
<g>
</g>
<g>
</g>
<g>
</g>
<g>
</g>
<g>
</g>
<g>
</g>
<g>
</g>
<g>
</g>
<g>
</g>
<g>
</g>
<g>
</g>
<g>
</g>
</svg>
