<?xml version="1.0" encoding="iso-8859-1"?>
<!-- Generator: Adobe Illustrator 19.0.0, SVG Export Plug-In . SVG Version: 6.00 Build 0)  -->
<svg version="1.1" id="Layer_1" xmlns="http://www.w3.org/2000/svg" xmlns:xlink="http://www.w3.org/1999/xlink" x="0px" y="0px"
	 viewBox="0 0 502 502" style="enable-background:new 0 0 502 502;" xml:space="preserve">
<g>
	<polygon style="fill:#FFB86C;" points="427.55,10 74.451,54.619 382.93,54.619 382.93,454.481 427.55,447.381 	"/>
	<rect x="74.451" y="54.619" style="fill:#EB5989;" width="308.48" height="437.381"/>
	<path d="M434.163,2.499c-2.152-1.898-5.012-2.78-7.867-2.42l-353.1,44.619c-4.926,0.625-8.746,4.953-8.746,9.921V492
		c0,5.522,4.478,10,10,10h308.48c5.522,0,10-4.478,10-10v-28.984l36.19-5.759c4.855-0.772,8.429-4.96,8.429-9.876V10
		C437.55,7.129,436.316,4.397,434.163,2.499C432.011,0.601,436.316,4.397,434.163,2.499z M372.931,482H84.451V64.619h288.48v389.862
		V482H372.931z M417.55,438.847l-24.619,3.918V54.619c0-5.522-4.478-10-10-10H233.353L417.55,21.343V438.847z"/>
	<g>
		<path style="fill:#3B7BC0;" d="M340.155,169.162c-4.718,35.714-41.95,94.556-77.664,89.838
			c-35.714-4.718-56.387-71.21-51.668-106.924s37.495-60.841,73.21-56.123C319.747,100.671,344.874,133.448,340.155,169.162z"/>
		<path d="M335.192,114.85c-12.225-15.947-29.929-26.18-49.851-28.812c-19.912-2.633-39.673,2.651-55.622,14.877
			c-15.947,12.226-26.179,29.929-28.811,49.851c-2.622,19.848,1.835,47.421,11.356,70.245c9.693,23.235,23.15,38.856,38.593,45.14
			l-3.864,29.247c-0.724,5.475,3.129,10.5,8.604,11.224c0.444,0.059,0.886,0.087,1.322,0.087c4.939,0,9.236-3.66,9.901-8.691
			l3.824-28.945c39.981-3.827,74.762-63.321,79.423-98.6C352.701,150.551,347.418,130.797,335.192,114.85z M330.241,167.853
			c-4.292,32.491-38.733,84.905-66.44,81.232c-12.209-1.612-24.266-14.652-33.076-35.774c-8.134-19.497-12.147-43.579-9.987-59.926
			c1.932-14.625,9.443-27.622,21.151-36.598c9.74-7.468,21.415-11.406,33.485-11.406c2.438,0,4.892,0.16,7.349,0.485
			c14.625,1.932,27.622,9.444,36.598,21.151C328.296,138.726,332.174,153.228,330.241,167.853z"/>
		<path style="fill:#3B7BC0;" d="M117.944,336.646c7.329,29.677,44.246,75.81,73.924,68.482
			c29.677-7.329,40.876-65.344,33.547-95.021s-37.328-47.794-67.005-40.466C128.732,276.969,110.615,306.968,117.944,336.646z"/>
		<path d="M235.122,307.709c-4.185-16.946-14.718-31.249-29.66-40.273c-14.941-9.024-32.501-11.688-49.45-7.503
			c-34.982,8.638-56.415,44.127-47.776,79.11c4.132,16.734,16.34,37.409,31.101,52.673c15.126,15.64,30.946,23.963,45.492,24.168
			l7.513,30.422c1.125,4.557,5.208,7.604,9.7,7.604c0.794,0,1.601-0.095,2.405-0.294c5.362-1.324,8.635-6.744,7.311-12.105
			l-7.59-30.733c12.278-7.18,22.013-21.672,27.949-41.974C238.075,348.424,239.255,324.442,235.122,307.709z M212.92,363.191
			c-5.295,18.108-13.842,29.854-23.45,32.228c-9.604,2.371-22.641-4.043-35.757-17.606c-12.292-12.711-22.766-30.218-26.062-43.564
			c-5.994-24.276,8.879-48.904,33.155-54.899c11.763-2.901,23.949-1.054,34.316,5.207c10.369,6.263,17.679,16.188,20.583,27.948
			C219.002,325.85,217.882,346.22,212.92,363.191z"/>
		<path d="M242.934,168.263c-0.437,0-0.878-0.028-1.322-0.087c-5.476-0.724-9.327-5.748-8.604-11.224
			c3.24-24.522,25.069-41.934,48.656-38.824c5.476,0.724,9.327,5.748,8.604,11.224c-0.724,5.475-5.751,9.327-11.224,8.604
			c-12.661-1.671-24.414,8.025-26.209,21.615C252.17,164.603,247.874,168.263,242.934,168.263z"/>
		<path d="M148.415,342.679c-4.492,0-8.575-3.048-9.7-7.604c-5.039-20.403,6.292-40.813,25.258-45.497
			c5.356-1.326,10.781,1.948,12.105,7.311c1.324,5.361-1.948,10.781-7.311,12.105c-8.26,2.04-13.031,11.589-10.637,21.286
			c1.324,5.361-1.948,10.781-7.311,12.105C150.016,342.584,149.208,342.679,148.415,342.679z"/>
	</g>
	<g>
		<path d="M344.37,457.932c-5.522,0-10-4.478-10-10v-29.746c0-5.522,4.478-10,10-10s10,4.478,10,10v29.746
			C354.37,453.454,349.893,457.932,344.37,457.932z"/>
	</g>
	<g>
		<path d="M344.37,384.116c-5.522,0-10-4.478-10-10v-87.035c0-5.522,4.478-10,10-10s10,4.478,10,10v87.035
			C354.37,379.639,349.893,384.116,344.37,384.116z"/>
	</g>
</g>
<g>
</g>
<g>
</g>
<g>
</g>
<g>
</g>
<g>
</g>
<g>
</g>
<g>
</g>
<g>
</g>
<g>
</g>
<g>
</g>
<g>
</g>
<g>
</g>
<g>
</g>
<g>
</g>
<g>
</g>
</svg>
