<?xml version="1.0" encoding="iso-8859-1"?>
<!-- Generator: Adobe Illustrator 19.0.0, SVG Export Plug-In . SVG Version: 6.00 Build 0)  -->
<svg version="1.1" id="Layer_1" xmlns="http://www.w3.org/2000/svg" xmlns:xlink="http://www.w3.org/1999/xlink" x="0px" y="0px"
	 viewBox="0 0 512 512" style="enable-background:new 0 0 512 512;" xml:space="preserve">
<g>
	<path style="fill:#97BAA8;" d="M406.261,155.9v129.815c0,25.767-20.942,46.73-46.683,46.73h-51.661
		c-6.147,0-11.13-4.983-11.13-11.13c0-6.147,4.983-11.13,11.13-11.13h51.661c13.467,0,24.422-10.977,24.422-24.469V167.03h-66.783
		c-6.147,0-11.13-4.983-11.13-11.13c0-6.147,4.983-11.13,11.13-11.13h77.913C401.278,144.769,406.261,149.752,406.261,155.9z"/>
	<path style="fill:#97BAA8;" d="M315.96,442.495V512H128.49v-69.505L315.96,442.495L315.96,442.495z"/>
</g>
<path style="fill:#B1D7C5;" d="M338.71,60.049L315.96,464.756H128.49L105.739,60.049h54.468h99.537H338.71z"/>
<path style="fill:#FF4328;" d="M297.446,9.43l-23.898,404.289c-0.279,4.73-4.203,8.379-8.881,8.379
	c-0.177,0-0.355-0.006-0.533-0.016c-4.91-0.29-8.653-4.506-8.363-9.414L279.67,8.379c0.29-4.909,4.5-8.652,9.414-8.363
	C293.993,0.306,297.737,4.521,297.446,9.43z"/>
<path style="fill:#BC9A5E;" d="M330.198,211.478L315.96,464.756H128.49l-14.238-253.277H330.198z"/>
<path style="fill:#FFBB5E;" d="M172.147,51.987c13.963,20.848,17.004,58.055-0.958,78.11c-1.759,1.963-4.192,2.964-6.636,2.964
	c-2.115,0-4.238-0.749-5.937-2.272c-3.663-3.28-3.972-8.91-0.692-12.573c10.925-12.197,10.645-39.566-0.574-56.319
	c-10.02-14.964-14.222-36.425-10.707-54.674c0.929-4.828,5.596-7.988,10.428-7.06c4.828,0.931,7.989,5.599,7.059,10.428
	C161.496,24.257,164.719,40.893,172.147,51.987z M218.179,51.987c-7.43-11.097-10.652-27.733-8.016-41.394
	c0.932-4.828-2.227-9.498-7.057-10.429s-9.498,2.227-10.429,7.057c-3.519,18.246,0.682,39.707,10.705,54.676
	c11.218,16.75,11.497,44.122,0.573,56.321c-3.28,3.664-2.97,9.293,0.695,12.573c1.7,1.522,3.822,2.271,5.936,2.271
	c2.444,0,4.878-1,6.637-2.964C235.181,110.039,232.14,72.833,218.179,51.987z"/>
<path style="fill:#DDC98B;" d="M112.375,178.087h219.7l-3.754,66.783H116.129L112.375,178.087z"/>
<path style="fill:#BC9A5E;" d="M287.461,178.087l-13.322,225.36c-0.279,4.73-4.203,8.379-8.881,8.379
	c-0.177,0-0.355-0.006-0.533-0.016c-4.91-0.29-8.653-4.506-8.363-9.414l13.26-224.309H287.461z"/>
<path style="fill:#967342;" d="M283.513,244.87l-9.374,158.578c-0.279,4.73-4.203,8.379-8.881,8.379
	c-0.177,0-0.355-0.006-0.533-0.016c-4.91-0.29-8.653-4.506-8.363-9.414l9.312-157.527H283.513z"/>
<g>
</g>
<g>
</g>
<g>
</g>
<g>
</g>
<g>
</g>
<g>
</g>
<g>
</g>
<g>
</g>
<g>
</g>
<g>
</g>
<g>
</g>
<g>
</g>
<g>
</g>
<g>
</g>
<g>
</g>
</svg>
